<?xml version="1.0" encoding="iso-8859-1"?>
<!-- Uploaded to: SVG Repo, www.svgrepo.com, Generator: SVG Repo Mixer Tools -->
<svg height="800px" width="800px" version="1.1" id="Layer_1" xmlns="http://www.w3.org/2000/svg" xmlns:xlink="http://www.w3.org/1999/xlink" 
	 viewBox="0 0 392.533 392.533" xml:space="preserve">
<path style="fill:#FFFFFF;" d="M337.584,370.036c6.012,0,10.925-4.848,10.925-10.925V32.065c0-6.012-4.848-10.925-10.925-10.925
	h-235.96c-6.012,0-10.925,4.848-10.925,10.925v327.111c0,6.012,4.848,10.925,10.925,10.925h235.96V370.036z"/>
<path style="fill:#FFC10D;" d="M288.711,137.051c-6.012,0-10.925-4.848-10.925-10.925c0-6.012,4.848-10.925,10.925-10.925h38.012
	V82.489h-59.798c-6.012,0-10.925-4.848-10.925-10.925c0-6.012,4.848-10.925,10.925-10.925h59.41
	c-1.875-10.149-10.731-17.778-21.398-17.778H134.271c-12.024,0-21.786,9.762-21.786,21.786V326.4
	c0,12.024,9.762,21.786,21.786,21.786h170.537c12.024,0,21.786-9.762,21.786-21.786V137.051H288.711z"/>
<g>
	<path style="fill:#194F82;" d="M264.663,204.477l-16.743,16.743l-53.333-53.333l16.743-16.743c4.267-4.267,4.267-11.119,0-15.451
		l-39.046-38.982c-3.556-3.556-9.115-4.267-13.446-1.552c-15.774,9.762-42.085,28.509-41.18,45.899
		c2.844,54.368,102.723,154.246,157.091,157.091c0.129,0,0.776,0,0.905,0c17.002,0,35.491-25.794,44.865-41.18
		c2.651-4.331,2.004-9.891-1.551-13.446l-39.046-39.046C275.846,200.21,268.929,200.21,264.663,204.477z M297.438,252.703
		c-8.275,11.96-17.778,22.303-21.85,23.661c-43.636-2.844-133.172-92.444-136.016-136.016c1.293-4.202,11.636-13.576,23.661-21.851
		l25.018,25.018l-16.743,16.743c-4.267,4.267-4.267,11.119,0,15.451l68.719,68.719c4.719,4.655,11.055,4.008,15.451,0l16.743-16.743
		L297.438,252.703z"/>
	<path style="fill:#194F82;" d="M337.584,0h-235.96C83.588,0,68.913,14.675,68.913,32.711v16.356H33.164
		c-6.012,0-10.925,4.848-10.925,10.925c0,6.012,4.848,10.925,10.925,10.925h35.749v35.685H33.164
		c-6.012,0-10.925,4.848-10.925,10.925s4.848,10.925,10.925,10.925h35.749v135.822H33.164c-6.012,0-10.925,4.849-10.925,10.925
		c0,6.012,4.848,10.925,10.925,10.925h35.749v35.556H33.164c-6.012,0-10.925,4.848-10.925,10.925
		c0,6.012,4.848,10.925,10.925,10.925h35.749v16.291c0,18.036,14.675,32.711,32.711,32.711h235.96
		c18.036,0,32.711-14.675,32.711-32.711V32.711C370.295,14.675,355.62,0,337.584,0z M348.509,359.822
		c0,6.012-4.848,10.925-10.925,10.925h-235.96c-6.012,0-10.925-4.848-10.925-10.925V32.711c0-6.012,4.848-10.925,10.925-10.925
		h235.96c6.012,0,10.925,4.848,10.925,10.925V359.822z"/>
</g>
<path style="fill:#56ACE0;" d="M139.572,139.636c2.844,43.636,92.444,133.172,136.016,136.016
	c4.202-1.293,13.576-11.636,21.85-23.661l-25.018-25.018l-16.743,16.743c-4.073,4.073-11.378,4.073-15.451,0l-68.784-68.719
	c-4.267-4.267-4.267-11.119,0-15.451l16.743-16.743l-25.018-25.018C151.143,125.996,140.8,135.499,139.572,139.636z"/>
</svg>