<?xml version="1.0" encoding="utf-8"?>
<!-- Uploaded to: SVG Repo, www.svgrepo.com, Generator: SVG Repo Mixer Tools -->
<svg fill="#000000" width="800px" height="800px" viewBox="0 0 32 32" version="1.1" xmlns="http://www.w3.org/2000/svg">
<title>quote-left</title>
<path d="M24 16.75c-2.119 0.008-4.005 0.996-5.23 2.534l-0.010 0.014c0.003-0.852 0.011-1.704 0-2.556l-0.008-0.551c-0.021-0.429-0.032-0.932-0.032-1.437 0-1.667 0.128-3.305 0.375-4.903l-0.023 0.178c0.179-1.266 0.667-2.394 1.386-3.337l-0.013 0.017c0.855-0.922 1.946-1.613 3.177-1.978l0.050-0.013c1.513-0.563 3.345-1.075 5.228-1.443l0.231-0.038c0.354-0.065 0.619-0.371 0.619-0.739 0-0.046-0.004-0.092-0.012-0.136l0.001 0.005c-0.069-0.354-0.377-0.617-0.745-0.617-0.044 0-0.087 0.004-0.128 0.011l0.004-0.001c-2.201 0.42-4.109 0.952-5.95 1.623l0.264-0.084c-1.549 0.467-2.865 1.317-3.884 2.44l-0.006 0.007c-0.866 1.114-1.468 2.474-1.689 3.958l-0.006 0.047c-0.241 1.495-0.379 3.218-0.379 4.973 0 0.522 0.012 1.041 0.036 1.557l-0.003-0.073 0.007 0.549c0.018 1.423 0.009 2.847 0 4.271l-0.010 2.471c0 3.728 3.022 6.75 6.75 6.75s6.75-3.022 6.75-6.75c0-3.728-3.022-6.75-6.75-6.75v0zM24 28.75c-2.899 0-5.25-2.351-5.25-5.25s2.351-5.25 5.25-5.25c2.899 0 5.25 2.351 5.25 5.25v0c-0.004 2.898-2.352 5.246-5.25 5.25h-0zM8.011 16.75c-2.118 0.008-4.005 0.996-5.229 2.534l-0.010 0.014c0.003-0.852 0.010-1.704 0.001-2.556l-0.007-0.54c-0.021-0.436-0.034-0.947-0.034-1.46 0-1.663 0.128-3.296 0.376-4.89l-0.023 0.177c0.179-1.266 0.667-2.394 1.384-3.337l-0.013 0.018c0.855-0.921 1.947-1.612 3.178-1.977l0.050-0.013c1.513-0.563 3.344-1.075 5.227-1.443l0.232-0.038c0.35-0.068 0.61-0.372 0.61-0.737 0-0.414-0.336-0.75-0.75-0.75-0.044 0-0.087 0.004-0.129 0.011l0.004-0.001c-2.201 0.421-4.108 0.953-5.949 1.623l0.265-0.084c-1.549 0.468-2.864 1.317-3.883 2.44l-0.006 0.007c-0.867 1.113-1.47 2.473-1.69 3.958l-0.006 0.047c-0.241 1.493-0.379 3.215-0.379 4.969 0 0.527 0.012 1.052 0.037 1.573l-0.003-0.074 0.007 0.537c0.017 1.415 0.008 2.831-0.001 4.247l-0.010 2.494c0 3.728 3.022 6.75 6.75 6.75s6.75-3.022 6.75-6.75c0-3.728-3.022-6.75-6.75-6.75v0zM8.011 28.75c-2.899 0-5.25-2.351-5.25-5.25s2.351-5.25 5.25-5.25c2.899 0 5.25 2.351 5.25 5.25v0c-0.004 2.898-2.352 5.246-5.25 5.25h-0z"></path>
</svg>