<?xml version="1.0" encoding="utf-8"?>
<!-- Uploaded to: SVG Repo, www.svgrepo.com, Generator: SVG Repo Mixer Tools -->
<svg width="800px" height="800px" viewBox="0 0 24 24" fill="none" xmlns="http://www.w3.org/2000/svg">
<g id="style=bulk">
<g id="arrow-short-up">
<path id="rectangle" d="M1.25 7.25C1.25 3.93629 3.93629 1.25 7.25 1.25L16.75 1.25C20.0637 1.25 22.75 3.93629 22.75 7.25L22.75 16.75C22.75 20.0637 20.0637 22.75 16.75 22.75L7.25 22.75C3.93629 22.75 1.25 20.0637 1.25 16.75L1.25 7.25Z" fill="#BFBFBF"/>
<path id="vector (Stroke)" fill-rule="evenodd" clip-rule="evenodd" d="M5.45397 14.821C5.71587 15.0691 6.12932 15.0579 6.37744 14.796L11.2096 9.69536C11.4245 9.46857 11.711 9.3554 12 9.3554C12.289 9.3554 12.5755 9.46857 12.7904 9.69536L17.6226 14.796C17.8707 15.0579 18.2841 15.0691 18.546 14.821C18.8079 14.5729 18.8191 14.1594 18.571 13.8975L13.7388 8.79685C13.2666 8.29841 12.632 8.04895 12 8.04895C11.368 8.04895 10.7334 8.29841 10.2612 8.79685L5.42902 13.8975C5.1809 14.1594 5.19208 14.5729 5.45397 14.821Z" fill="#000000"/>
</g>
</g>
</svg>