<?xml version="1.0" encoding="utf-8"?>
<!-- Uploaded to: SVG Repo, www.svgrepo.com, Generator: SVG Repo Mixer Tools -->
<svg width="800px" height="800px" viewBox="0 0 24 24" fill="none" xmlns="http://www.w3.org/2000/svg">
<g id="style=bulk">
<g id="arrow-short-down">
<path id="rectangle" d="M1.25 7.25C1.25 3.93629 3.93629 1.25 7.25 1.25L16.75 1.25C20.0637 1.25 22.75 3.93629 22.75 7.25L22.75 16.75C22.75 20.0637 20.0637 22.75 16.75 22.75L7.25 22.75C3.93629 22.75 1.25 20.0637 1.25 16.75L1.25 7.25Z" fill="#BFBFBF"/>
<path id="vector (Stroke)" fill-rule="evenodd" clip-rule="evenodd" d="M5.45397 9.17902C5.71587 8.9309 6.12932 8.94208 6.37744 9.20397L11.2096 14.3046C11.4245 14.5314 11.711 14.6446 12 14.6446C12.289 14.6446 12.5755 14.5314 12.7904 14.3046L17.6226 9.20398C17.8707 8.94208 18.2841 8.9309 18.546 9.17902C18.8079 9.42713 18.8191 9.84058 18.571 10.1025L13.7388 15.2031C13.2666 15.7016 12.632 15.951 12 15.951C11.368 15.951 10.7334 15.7016 10.2612 15.2031L5.42902 10.1025C5.1809 9.84058 5.19208 9.42713 5.45397 9.17902Z" fill="#000000"/>
</g>
</g>
</svg>