<?xml version="1.0" encoding="utf-8"?>
<!-- Uploaded to: SVG Repo, www.svgrepo.com, Generator: SVG Repo Mixer Tools -->
<svg fill="#000000" width="800px" height="800px" viewBox="0 0 32 32" version="1.1" xmlns="http://www.w3.org/2000/svg">
<title>quote-right</title>
<path d="M14.739 15.241c-0.017-1.415-0.008-2.83 0.001-4.245l0.010-2.496c0-0.025 0.001-0.054 0.001-0.083 0-3.774-3.060-6.834-6.834-6.834s-6.834 3.060-6.834 6.834c0 3.774 3.060 6.834 6.834 6.834 2.146 0 4.060-0.989 5.313-2.536l0.010-0.013c-0.003 0.852-0.010 1.705-0.001 2.557l0.007 0.54c0.021 0.436 0.034 0.947 0.034 1.46 0 1.663-0.128 3.297-0.376 4.891l0.023-0.177c-0.178 1.266-0.666 2.393-1.384 3.336l0.013-0.017c-0.855 0.922-1.947 1.613-3.179 1.978l-0.050 0.013c-1.515 0.565-3.346 1.077-5.229 1.443l-0.229 0.037c-0.354 0.065-0.618 0.371-0.618 0.738 0 0.414 0.335 0.749 0.749 0.75h0c0.047-0 0.093-0.004 0.138-0.012l-0.005 0.001c2.199-0.419 4.106-0.951 5.946-1.623l-0.262 0.084c1.55-0.466 2.866-1.316 3.884-2.44l0.006-0.007c0.868-1.113 1.47-2.474 1.69-3.96l0.006-0.046c0.241-1.493 0.379-3.215 0.379-4.968 0-0.527-0.012-1.052-0.037-1.573l0.003 0.074zM8 13.75c-2.899 0-5.25-2.351-5.25-5.25s2.351-5.25 5.25-5.25c2.899 0 5.25 2.351 5.25 5.25v0c-0.004 2.898-2.352 5.246-5.25 5.25h-0zM30.734 15.768l-0.006-0.526c-0.018-1.424-0.008-2.847 0-4.27l0.010-2.472c0-0.025 0-0.054 0-0.083 0-3.774-3.059-6.833-6.833-6.833s-6.833 3.059-6.833 6.833c0 3.774 3.059 6.833 6.833 6.833 2.146 0 4.060-0.989 5.313-2.536l0.010-0.013c-0.003 0.852-0.011 1.705 0 2.557l0.008 0.529c0.021 0.432 0.033 0.939 0.033 1.448 0 1.672-0.129 3.313-0.378 4.915l0.023-0.178c-0.177 1.266-0.665 2.394-1.384 3.336l0.013-0.017c-0.854 0.922-1.945 1.614-3.177 1.978l-0.050 0.013c-1.514 0.564-3.345 1.076-5.229 1.443l-0.23 0.037c-0.354 0.065-0.618 0.371-0.618 0.738 0 0.414 0.335 0.749 0.749 0.75h0c0.046-0 0.092-0.004 0.135-0.012l-0.005 0.001c2.2-0.42 4.108-0.952 5.949-1.623l-0.264 0.084c1.549-0.467 2.865-1.316 3.884-2.44l0.006-0.007c0.869-1.113 1.471-2.474 1.688-3.96l0.006-0.046c0.242-1.494 0.381-3.215 0.381-4.97 0-0.531-0.013-1.059-0.038-1.583l0.003 0.074zM23.988 13.75c-2.899 0-5.25-2.351-5.25-5.25s2.351-5.25 5.25-5.25c2.899 0 5.25 2.351 5.25 5.25v0c-0.003 2.898-2.352 5.247-5.25 5.25h-0z"></path>
</svg>